<svg xmlns="http://www.w3.org/2000/svg" xml:space="preserve" id="Ebene_1" x="0" y="0" style="enable-background:new 0 0 256 256" version="1.1" viewBox="0 0 256 256"><style>.st1{fill:#fff}</style><path d="M0 0h256v256H0z" style="fill:#273589"/><path d="M109.8 68.8V131c0 4.5 3.7 8.2 8.2 8.2h62.2c4.5 0 8.2-3.7 8.2-8.2V68.8c0-4.5-3.7-8.2-8.2-8.2H118c-4.6.1-8.2 3.7-8.2 8.2zm57.6 46L149 96.4l-18.4 18.3-5.6-5.6 24-24 24 24-5.6 5.7z" class="st1"/><path d="M183.6 60.7h-69c-2.6 0-4.8 2.1-4.8 4.8v10.2h78.6V65.4c-.1-2.6-2.2-4.7-4.8-4.7z" class="st1"/><path d="M39.9 39.8v35.8h63.9V65.4c0-5.9 4.8-10.8 10.8-10.8h69c5.9 0 10.8 4.8 10.8 10.8v10.2h21.8V39.8H39.9z" class="st1"/><g style="opacity:.4"><path d="M201.1 190.4v10.7h-10.7v15H216.2v-25.7zM54.9 201.1v-10.7h-15v25.7h25.7v-15zM152.7 201.1h25.8v15.1h-25.8zM115.1 201.1h25.8v15.1h-25.8zM77.5 201.1h25.8v15.1H77.5zM39.9 152.7H55v25.8H39.9zM39.9 115.1H55v25.8H39.9zM39.9 75.6H55v27.6H39.9zM201.1 75.6h15.1v27.6h-15.1zM201.1 115.1h15.1v25.8h-15.1zM201.1 152.7h15.1v25.8h-15.1z" class="st1"/></g></svg>
